.
 
http://www.scenetime.com    -   SceneTime [ We been having it ] !!!


How come you press harder on a remote control when you know the battery is dead? so you better seed to get speed ;)

        Seed back for speed


...................................NFO:.................................................[pre]  
    *********** ****    ****      ***      ******** *********** ****    *** **********
           *+*     +*+*+* *+*+*+   *+* *+*   *+*    *+*    *+*     *+*+*   *+* *+*        
           +*+     +*+ +*+*+ +*+  +*+   +*+  +*+           +*+     *+*+*+  +*+ +*+        
           +$+     +$+  +*+  +$+ +$++*++$++* *$*           +$+     +$+ +*+ +$+ +$++*++$  
           +$+     +$+       +$+ +$+     +$+ +$+   +$+$    +$+     +$+  +$+$+$ +$+        
           $+$     $+$       $+$ $+$     $+$ $+$    $+$    $+$     $+$   $+$+$ $+$        
       $$$$$$$$$$$ $$$       $$$ $$$     $$$  $$$$$$$$ $$$$$$$$$$$ $$$    $$$$ $$$$$$$$$$     
                                                



                           Another Fine Release Brought to you from - IMAGiNE                   
                                                 

********************************************************************************************************************                                
                               Zookeeper 2011 CAM READNFO XViD - IMAGiNE
********************************************************************************************************************

Ripper ...........: IMAGiNE                                      IMDB Rating.......:7.8/10                             
Video Codec.......: XVID                                         Release Date......:13/07/11
Audio Codec.......: MP3                                          Theatre Date......:10/09/11
Audio Bitrate.....: 128                                          Runtime.......:1h 36mn
Subtitles.........: NIL                                          Language..........:ENGLISH
Resolution......: 640 x 272                                      IMDb URL..........:http://www.imdb.com/title/tt1220634/


[color=yellow]DETAILS:[/color]

Video
ID                               : 0
Format                           : MPEG-4 Visual
Format profile                   : Advanced Simple@L5
Format settings, BVOP            : 2
Format settings, QPel            : No
Format settings, GMC             : No warppoints
Format settings, Matrix          : Default (MPEG)
Muxing mode                      : Packed bitstream
Codec ID                         : XVID
Codec ID/Hint                    : XviD
Duration                         : 1h 36mn
Bit rate                         : 1 895 Kbps
Width                            : 640 pixels
Height                           : 272 pixels
Display aspect ratio             : 2.35:1
Frame rate                       : 29.970 fps
Color space                      : YUV
Chroma subsampling               : 4:2:0
Bit depth                        : 8 bits
Scan type                        : Progressive
Compression mode                 : Lossy
Bits/(Pixel*Frame)               : 0.363
Stream size                      : 1.28 GiB (93%)
Writing library                  : XviD 64

Audio
ID                               : 1
Format                           : MPEG Audio
Format version                   : Version 1
Format profile                   : Layer 3
Mode                             : Joint stereo
Mode extension                   : MS Stereo
Codec ID                         : 55
Codec ID/Hint                    : MP3
Duration                         : 1h 36mn
Bit rate mode                    : Constant
Bit rate                         : 128 Kbps
Channel(s)                       : 2 channels
Sampling rate                    : 44.1 KHz
Compression mode                 : Lossy
Delay relative to video          : 4ms
Stream size                      : 88.4 MiB (6%)
Alignment                        : Split accross interleaves
Interleave, duration             : 33 ms (1.00 video frame)
Writing library                  : LAME3.98.4



[color=yellow]SOURCES:[/color]

VIDEO: ........... Zookeeper 2011.TS.XVID ERDNA
AUDIO: ........... Zookeeper 2011.TS.XVID ERDNA Thanks :D

[color=yellow]NOTES:[/color]

IMAGiNE bringing you another release..........
Zookeeper...........
Ok heres our first go at Zookeeper........
The source was pretty good, but had bars 
top and bottom that needed to be cut away
wasnt left with much after that so 
went for a smaller res 
rather than blow it up too much :D
So we made a script to crop resize and sharpen......
Adjusted the whitebalance and the rbg 
so the black is true and the snow isnt blue :P
Anyhow, as for the audio, the source was labeled TS
BUT the audio sounds a bit hollow at times 
so not 100% sure it is LiNE so we tagged it cam, 
sounds nice either way so....
Enjoy Folks!



[color=yellow]SCREENS:[/color]


[color=yellow]GREETS:[/color]

FLAWL3SS,ViSiON,Rx,ELEKTRI4KA,ADDiCTED,Autotron,CiNEDUB,CRYS,
And to all the other p2p grps past and present 

[COLOR=RED]Looking for these,syncers,cammers,audio,silver supplier.....Have anything to offer????......
Contact us imaginegroup@hushmail.com[/COLOR][/pre]